<?xml version="1.0" encoding="utf-8"?>
<!-- Generator: Adobe Illustrator 19.2.1, SVG Export Plug-In . SVG Version: 6.00 Build 0)  -->
<svg version="1.1" id="_x3C_Слой_x3E_" xmlns="http://www.w3.org/2000/svg" xmlns:xlink="http://www.w3.org/1999/xlink" x="0px"
	 y="0px" viewBox="0 0 841.9 595.3" style="enable-background:new 0 0 841.9 595.3;" xml:space="preserve">
<style type="text/css">
	.st0{fill:#2EC8D7;}
</style>
<g>
	<path class="st0" d="M188.3,455.8H137v-85.5h49.3V386h-30.1v19h28v15.6h-28v19.5h32v15.7L188.3,455.8L188.3,455.8z"/>
	<path class="st0" d="M272,418.8c0,25.7-12,38.5-35.9,38.5c-23.2,0-34.8-12.5-34.8-37.6v-49.3h19.3V420c0,13.8,5.4,20.7,16.2,20.7
		c10.6,0,15.9-6.7,15.9-20v-50.3H272V418.8z"/>
	<path class="st0" d="M358.1,455.8H336l-13.3-22c-1-1.7-2-3.1-2.9-4.5c-0.9-1.3-1.8-2.4-2.8-3.4c-0.9-0.9-1.9-1.7-2.9-2.2
		s-2.1-0.7-3.3-0.7h-5.2v32.7h-19.3v-85.5h30.6c20.8,0,31.1,7.7,31.1,23.2c0,3-0.5,5.7-1.4,8.3c-0.9,2.5-2.2,4.8-3.9,6.8
		c-1.7,2-3.7,3.8-6,5.2c-2.4,1.5-5,2.6-7.9,3.5v0.3c1.3,0.4,2.5,1,3.7,1.9s2.3,1.9,3.5,3.1c1.1,1.2,2.2,2.5,3.2,3.9s2,2.7,2.8,4
		L358.1,455.8z M305.6,384.7v23.8h8.4c4.1,0,7.5-1.2,10-3.6s3.8-5.4,3.8-9c0-7.5-4.5-11.2-13.4-11.2L305.6,384.7L305.6,384.7z"/>
	<path class="st0" d="M399,457.3c-12.2,0-22.2-4-30-11.9c-7.7-8-11.6-18.4-11.6-31.1c0-13.5,3.9-24.5,11.7-32.8
		c7.8-8.3,18.2-12.5,31.1-12.5c12.2,0,22.1,4,29.6,12s11.3,18.5,11.3,31.6c0,13.4-3.9,24.3-11.7,32.5
		C421.8,453.2,411.6,457.3,399,457.3z M399.9,385.4c-6.8,0-12.1,2.5-16.1,7.6s-6,11.8-6,20.1c0,8.5,2,15.1,6,20.1
		c4,4.9,9.2,7.4,15.6,7.4c6.6,0,11.9-2.4,15.8-7.2c3.9-4.8,5.9-11.4,5.9-19.9c0-8.9-1.9-15.8-5.7-20.7
		C411.6,387.9,406.4,385.4,399.9,385.4z"/>
	<path class="st0" d="M508.9,386h-24.4v69.8h-19.3V386h-24.3v-15.7h68L508.9,386L508.9,386z"/>
	<path class="st0" d="M590.7,455.8h-22.1l-13.3-22c-1-1.7-1.9-3.1-2.9-4.5c-0.9-1.3-1.8-2.4-2.8-3.4c-0.9-0.9-1.9-1.7-2.9-2.2
		s-2.1-0.7-3.3-0.7h-5.2v32.7h-19.3v-85.5h30.5c20.8,0,31.1,7.7,31.1,23.2c0,3-0.4,5.7-1.4,8.3c-0.9,2.5-2.2,4.8-3.9,6.8
		s-3.7,3.8-6.1,5.2c-2.4,1.5-5,2.6-7.9,3.5v0.3c1.3,0.4,2.5,1,3.7,1.9s2.3,1.9,3.5,3.1c1.1,1.2,2.2,2.5,3.2,3.9s1.9,2.7,2.8,4
		L590.7,455.8z M538.2,384.7v23.8h8.4c4.1,0,7.4-1.2,10-3.6c2.5-2.4,3.8-5.4,3.8-9c0-7.5-4.5-11.2-13.4-11.2L538.2,384.7
		L538.2,384.7z"/>
	<path class="st0" d="M633,370.3v14.9h-7.1v55.7h7.1v14.9h-33.6v-14.9h7.1v-55.7h-7.1v-14.9H633z"/>
	<path class="st0" d="M665.8,426.3v29.4h-19.3v-85.5h30.2c21.6,0,32.3,9.1,32.3,27.3c0,8.6-3.1,15.5-9.3,20.8s-14.5,8-24.8,8
		L665.8,426.3L665.8,426.3z M665.8,385.1v26.6h7.6c10.3,0,15.4-4.5,15.4-13.5c0-8.8-5.1-13.2-15.4-13.2h-7.6V385.1z"/>
	<path class="st0" d="M719.8,452.5v-19.1c3.5,2.9,7.2,5.1,11.3,6.5s8.1,2.2,12.3,2.2c2.4,0,4.5-0.2,6.4-0.7c1.8-0.4,3.3-1,4.5-1.8
		s2.1-1.7,2.7-2.7c0.6-1.1,0.9-2.2,0.9-3.4c0-1.7-0.5-3.2-1.4-4.5c-1-1.3-2.3-2.5-3.9-3.6c-1.7-1.1-3.6-2.2-5.9-3.2
		c-2.3-1-4.7-2.1-7.3-3.2c-6.7-2.8-11.7-6.2-15-10.2s-4.9-8.9-4.9-14.6c0-4.4,0.9-8.3,2.7-11.5s4.2-5.8,7.3-7.9s6.6-3.6,10.7-4.6
		c4.1-1,8.4-1.4,12.9-1.4s8.4,0.3,11.8,0.8c3.4,0.5,6.6,1.4,9.5,2.5v17.8c-1.4-1-3-1.9-4.7-2.6s-3.4-1.4-5.2-1.9s-3.6-0.9-5.4-1.1
		c-1.8-0.2-3.4-0.3-5-0.3c-2.2,0-4.2,0.2-6,0.6s-3.3,1-4.5,1.8s-2.2,1.7-2.9,2.7c-0.7,1.1-1,2.2-1,3.6s0.4,2.7,1.1,3.8
		c0.8,1.1,1.8,2.2,3.2,3.2s3.1,2,5.1,3s4.2,2,6.7,3c3.4,1.4,6.5,2.9,9.2,4.6c2.7,1.6,5.1,3.4,7,5.4c2,2,3.5,4.3,4.5,7
		c1,2.6,1.5,5.6,1.5,9.1c0,4.8-0.9,8.8-2.7,12s-4.3,5.9-7.4,7.9c-3.1,2-6.7,3.4-10.8,4.3s-8.5,1.3-13,1.3c-4.7,0-9.2-0.4-13.4-1.2
		C726.6,455.2,722.9,454.1,719.8,452.5z"/>
	<g>
		<path class="st0" d="M74.6,93.5c-1.9,27,25.4,41.2,46.1,49.7c24.3,10,58.4,12.7,83.9,10.4c-2.1-2.6-7-7.7-9.3-10.3
			c-3.2-4.2-6.4-8.5-9.6-12.7c-33.4-2-56.4-1.2-89.4-22.4C88.6,103.4,82.2,98.3,74.6,93.5z"/>
		<path class="st0" d="M687.1,302.5c-35.9,8.6-60.1,12.6-93.6,36.8c-13.4,3.8-259.2,1.9-280.5-4.7c-14.8-3.5-14.9-11.2-18.8-14.5
			c-6-4.9-9.5-1.7-17-15.4c-3.1,0.8-6.5,1.1-9.7,1.9c10.8,15.1,13.2,23.6,13.1,42.3H403h182.6l32.5,0.1c20.4-0.8,52.9-11.5,71.3-19
			c6.2-2.5,14.7-6.2,19.7-10.2c5.7-4.6,6.4-16.8,2.9-23.7C703.7,298.1,695.4,300.3,687.1,302.5z"/>
		<path class="st0" d="M272.9,136.3c-41,7.1-72.5-13.8-80.5-14.3c0.8,5.2,10.5,17.1,14.4,20.7c6.6,6.1,14.6,9.5,23.1,12.4
			c27.1,9.2,35.7,8.1,62.5,8.9c4.5,0.3,6.4,9,0.5,9.7c-17.9,0.5-37.6,0.1-55.2-5.5c-7.7-2.4-12-5.3-14.2-5.5
			c12,22.5,36.6,28.4,59.4,30.5c5.5,0.5,20.1-0.8,25.2,2.8c2.5,1.7,1.3,6.6,0,7.1c-3.6,1.5-9.4,1-15.5,0.7
			c-7.9-0.5-17.8-1.2-25.5-3.2c-8.5-2.2-14-3.2-19-6.5c2.6,5.8,8.7,8.7,13.2,12.7c13.8,9.5,51.4,8.4,59.8,12.6
			c3.6,1.8,3.2,8.6-3.1,8.2c-6.7-0.5-14.8-1.8-21.6-2.3c-6.3-0.6-15.5-3.2-20.9-2.9c5.8,10.6,16.5,19.1,46.3,19.1
			c3.9,0.1,12.2,0.3,8.6,7.2c-1.8,3.3-10.2,1.9-13.6,1.7c-5.1-0.2-10.1-0.7-15.1-1.7c-4-0.9-6.6-2-11.1-2.1
			c0.4,6.2,3.9,9.8,9.3,13.7c0.9,0.6,7.2,3.9,13.4,5.9c3.5,1.2,7.7,1.9,10.2,3.4c3.3,2,4.9,5.9-0.4,7.8c-4.5,1.6-7.1-1.4-11.2-0.7
			c-5.7,2.5-7.5,7.5-4.2,15.4c1,1.1,2.9,3.9,6,4.7c4.6,1.2,9.6,2.5,9.3,6.4c-0.3,3.9-5.8,3.8-10.4,4.8c-5.7,1.2-7.3,5.6-7.3,11.1
			c2.4,9.7,21.8,8.4,34.7,8.8c23.6,0.6,43.8,2,69.1,2.2c58.3,0.4,114.2,1,172.5,0.4c1.6,0,5.7,0.6,7-0.3c6.3-3.8,12.9-10.4,30.6-18
			c13.7-5.9,27.8-10.3,42.4-13.8c9.3-2.2,40.6-6.2,45.2-12.8c-0.1-2.4-1.9-4-4.1-5.6c-5.9-4.6-17.7-7.1-30.5-8.8
			c-11-1.4-24-2.8-33.1-3.2c-1.3,0-2.7,3.6-7,6.7c-4.7,3.3-12.4,5.2-21.5,4.6c-9.4-0.6-29.6-8.2-38.7-12.3
			c-31.3-13.9-136.6-65.1-154.4-60.4c-6.9,3.9-12.1,11.4-18.6,16.9c-7.4,6.1-16.2,10.8-25.1,11.7c-20.1,2.1-48.9-7.5-42.4-28.5
			c9.1-17.3,12.4-15.8,1-35.5C315.6,138.4,313,129.3,272.9,136.3z"/>
		<path class="st0" d="M201.8,253.4c10.4-2.1,65.1-16.7,64.1-28.7c-0.4-5.2-4.1-9.6-8.1-9.6c-1.6,0-2.6,1.3-4.5,2.4
			c-49.7,28.4-83.1,18.7-122.8,17c0.8,9.4,20,18.3,27.9,19.9C171.3,256.9,189.1,256,201.8,253.4z"/>
		<path class="st0" d="M280.7,248.9c-0.1-2.5-0.1-5-0.2-7.6c-2.9-2.1-5.7-4.2-8.6-6.3c-18.8,16.1-46,25.1-70.3,28.6
			c-8.2,1.2-21.5,1.6-28.4,4.2c4,7.5,19.4,12.4,27.5,13.2c13.1,1.3,22.3,0,34.5-2C269.3,273.3,271.8,257.1,280.7,248.9z"/>
		<path class="st0" d="M91.9,168c10.4,8.1,24.3,15.3,37.4,17.7c33.7,6.3,64.8,6,97.1-2.6c-11.3-15.3-11.1-14.3-12-19.2
			c-0.7-3.4-0.1-2.3-4.6-1.6c-29.5,4.5-42.1,2.2-75.3-5.2c-5.1-1.1-14.6-4.3-24.4-8.3c-3.9-1.6-13.7-7-16.6-7.3
			c-12.9-1.4-19.8-7-21.4-8.9C71.6,143,84,161.8,91.9,168z"/>
		<path class="st0" d="M572.8,257.9c13.7,6,44.1,21.2,53,7.3c-11-4-13.2-5-13.9-3.4c-0.7,1.7-1.7,4.5-3.8,4.2
			c-10.9-1.7-1.3-6.8-4.9-8.5c-4.4-2.1-11-5-15.5-7.1c-1.9-0.9-1.8-0.8-3.1,0.9c-1.5,2-2.8,3.5-4.4,5.5c-3.5,0.7-7.4-3.5-6.3-5.4
			c1.3-2,2.7-3.5,4-5.5c-6.1-3-12-5.9-18.2-8.9c-4.3,4.6-5.4,8.7-10.3,5.9c-4.9-4.6-1.3-4.9,2.8-10.6c-5.4-3-12.6-6.1-18-9.2
			c-2.7,2.5-4.9,5.8-7.9,8.2c-4.5,3.6-10.1-2.8-7.5-5.9c2.1-2.5,4.5-4.9,7-7c-7.1-3.3-14.1-6.1-21.3-9.4c-2.4,3-5.4,5.5-8.1,8.1
			c-5.7,5.5-10.1-3.5-7.9-5.6c2.3-2.1,4.8-3.6,7.2-6.2c-6.9-2.9-13.7-6.6-20.6-9.5c-3.3,3.8-7,6.6-10.3,10.4c-2,0.8-7.4-2-6.8-5.5
			l6.6-8.2c-0.5-0.3-16.9-3.1-18-3.1c-3.8,0.1-6.9,1.7-9.9,2.4c-3.5,0.9-6.6,2.4-9.7,4.9C485.7,216.3,516.1,232.1,572.8,257.9z"/>
		<path class="st0" d="M274.6,295.4c3.2-2.1,10.8-9.1,6.8-12.9c-2.9-2.8-6.3-6-8.8-8.5c-2.1,1.4-6.3,4.9-11.9,7.7
			c-7.5,3.8-16.5,6.9-16.6,7c5.3,5.2,12.4,10,17.9,10C267.1,298.6,271.1,297.7,274.6,295.4z"/>
		<path class="st0" d="M121.1,217.8c12.8,7.1,28,9.7,42.6,10.1c16.4,0.4,31.4-1.1,47-4.5c8.9-1.9,31.6-7.9,37-14.4
			c-9.6-9.3-7.5-7.2-11.4-18.9c-12.1,3.9-21.1,5.8-34,7.7c-20.7,3-44.6,2.7-66.1-1.1c-2.2-0.4-12.6-3-13.5-2.9
			c-12,0.9-21.4-0.8-27.7-2.5C96.1,199.4,113.4,213.6,121.1,217.8z"/>
		<path class="st0" d="M302.2,272.4c-12.9-6.5-16.2-11-17.3-14.1c-9.6,8.1,1.6,22,11,21.7C296.9,277.2,299.3,273.8,302.2,272.4z"/>
		<path class="st0" d="M296.3,312.4c2.1-2.5,7.2-8.7,8.8-10.8c-7.5-10.4-6-7.2-9.4-13.1C283.9,293.9,281.8,303.3,296.3,312.4z"/>
	</g>
</g>
</svg>
