<?xml version="1.0" encoding="utf-8"?>
<!-- Generator: Adobe Illustrator 19.2.1, SVG Export Plug-In . SVG Version: 6.00 Build 0)  -->
<svg version="1.1" id="Слой_1" xmlns="http://www.w3.org/2000/svg" xmlns:xlink="http://www.w3.org/1999/xlink" x="0px" y="0px"
	 viewBox="0 0 87 89" style="enable-background:new 0 0 87 89;" xml:space="preserve">
<style type="text/css">
	.st0{fill:#FFFFFF;}
	.st1{display:none;}
	.st2{display:inline;}
</style>
<path class="st0" d="M63.2,16.3L63,16.1l0,4.1l0.1,0c7,4.5,11.4,10.8,13.1,18.8c-0.5-0.1-1-0.2-1.3-0.2v0c0,0,0,0,0,0
	c-0.3,0-0.5,0-0.6,0l0,0c-1.5,0.1-2.7,0.6-3.6,1.6c-1.5,1.6-1.3,3.8-1.3,4h2.9c0,0.1-0.1-1.4,0.6-2c0.4-0.4,1.1-0.6,2-0.7
	c0.4,0,1,0.1,1.5,0.5c0.3,0.3,0.5,0.7,0.6,1.3c0,0.1,0,0.2,0,0.3c0,0.1,0,0.2,0,0.4h0c0.1,0.8,0.1,1.6,0.1,2.5
	c0,3.7-0.6,7.3-1.7,10.8h-7.6v3h6.5c-0.4,0.8-0.7,1.6-1.2,2.4H61.5v3h9.7c-1.1,1.6-2.4,3.2-3.8,4.7c-3.6,3.6-7.8,6.3-12.4,8v-25h3.4
	V29.3h0v-6.5l-1.4-2l-1.4,2v5.6h-1.2V24h0v-6.5l-1.4-2l-1.4,2v4.3h-1.2v-6.4h-0.1l0.1,0L45,4.7v-7.5l-1.6-1.8l-1.5,1.8v7.2
	l-5.1,10.9l0,0v6.4h-1.4v-4.4l-1.4-2l-1.4,2v4.4h0v6.6h-1.2v-5.6l-1.4-2l-1.4,2v6.5h0v24.3h3.6v25.1c-8-2.9-14.6-8.7-18.5-16.2
	c0.1-0.3,0.2-0.6,0.4-0.8c0.4-0.4,1.1-0.6,2-0.7c0.4,0,1,0.1,1.5,0.5c0.4,0.4,0.7,1.1,0.7,2h0.1h2.9h0.1c0,0-0.1-1.2,0.5-1.9
	c0.4-0.4,1.1-0.6,2-0.7c0.4,0,1,0.1,1.5,0.5c0.4,0.4,0.7,1.1,0.7,2h3c0-1.8-0.6-3.2-1.6-4.2c-1.2-1.1-2.6-1.3-3.4-1.3v0c0,0,0,0,0,0
	c-0.3,0-0.6,0-0.6,0l0,0c-1.4,0.1-2.6,0.6-3.5,1.5c-0.1-0.1-0.1-0.2-0.2-0.2C18.4,58.2,17,58,16.2,58v0c0,0,0,0,0,0
	c-0.3,0-0.6,0-0.6,0l0,0c-1.3,0.1-2.4,0.5-3.2,1.3c-1.4-3.7-2.3-7.7-2.3-11.9c0-4.6,0.7-9,2.1-12.8h10.8v-3h-9.5
	c2.5-5.1,6.3-9.2,11.4-12.3l0.1,0l0-3.8l-0.2,0.1c-11.1,6.7-18,18.8-17.9,31.8C7,67.5,23.4,83.8,43.5,83.8l0.3,0
	c9.8-0.1,18.9-4,25.8-11c6.9-7,10.6-16.2,10.5-26C80.1,34.4,73.7,23,63.2,16.3z"/>
<g class="st1">
	<circle class="st2" cx="43.7" cy="47.1" r="36.5"/>
</g>
<g>
	<g>
		<path d="M43.4,32.6c-4.7,0-8.5,3.8-8.5,8.5c0,4.7,3.8,8.5,8.5,8.5c4.7,0,8.5-3.8,8.5-8.5C51.9,36.4,48.1,32.6,43.4,32.6z
			 M48.8,39.9h-4.2v-4.2C46.7,36.2,48.3,37.8,48.8,39.9z M43.4,46.6c-3,0-5.5-2.5-5.5-5.5c0-2.6,1.9-4.8,4.3-5.4v6.6h6.6
			C48.2,44.8,46,46.6,43.4,46.6z"/>
		<path d="M63.2,16.3L63,16.1l0,4.1l0.1,0c7,4.5,11.4,10.8,13.1,18.8c-0.5-0.1-1-0.2-1.3-0.2v0c0,0,0,0,0,0c-0.3,0-0.5,0-0.6,0l0,0
			c-1.5,0.1-2.7,0.6-3.6,1.6c-1.5,1.6-1.3,3.8-1.3,4h2.9c0,0.1-0.1-1.4,0.6-2c0.4-0.4,1.1-0.6,2-0.7c0.4,0,1,0.1,1.5,0.5
			c0.3,0.3,0.5,0.7,0.6,1.3c0,0.1,0,0.2,0,0.3c0,0.1,0,0.2,0,0.4h0c0.1,0.8,0.1,1.6,0.1,2.5c0,3.7-0.6,7.3-1.7,10.8h-7.6v3h6.5
			c-0.4,0.8-0.7,1.6-1.2,2.4H61.5v3h9.7c-1.1,1.6-2.4,3.2-3.8,4.7c-3.6,3.6-7.8,6.3-12.4,8v-25h3.4V29.3h0v-6.5l-1.4-2l-1.4,2v5.6
			h-1.2V24h0v-6.5l-1.4-2l-1.4,2v4.3h-1.2v-6.4h-0.1l0.1,0L45,4.7v-7.5l-1.6-1.8l-1.5,1.8v7.2l-5.1,10.9l0,0v6.4h-1.4v-4.4l-1.4-2
			l-1.4,2v4.4h0v6.6h-1.2v-5.6l-1.4-2l-1.4,2v6.5h0v24.3h3.6v25.1c-8-2.9-14.6-8.7-18.5-16.2c0.1-0.3,0.2-0.6,0.4-0.8
			c0.4-0.4,1.1-0.6,2-0.7c0.4,0,1,0.1,1.5,0.5c0.4,0.4,0.7,1.1,0.7,2h0.1h2.9h0.1c0,0-0.1-1.2,0.5-1.9c0.4-0.4,1.1-0.6,2-0.7
			c0.4,0,1,0.1,1.5,0.5c0.4,0.4,0.7,1.1,0.7,2h3c0-1.8-0.6-3.2-1.6-4.2c-1.2-1.1-2.6-1.3-3.4-1.3v0c0,0,0,0,0,0c-0.3,0-0.6,0-0.6,0
			l0,0c-1.4,0.1-2.6,0.6-3.5,1.5c-0.1-0.1-0.1-0.2-0.2-0.2C18.4,58.2,17,58,16.2,58v0c0,0,0,0,0,0c-0.3,0-0.6,0-0.6,0l0,0
			c-1.3,0.1-2.4,0.5-3.2,1.3c-1.4-3.7-2.3-7.7-2.3-11.9c0-4.6,0.7-9,2.1-12.8h10.8v-3h-9.5c2.5-5.1,6.3-9.2,11.4-12.3l0.1,0l0-3.8
			l-0.2,0.1c-11.1,6.7-18,18.8-17.9,31.8C7,67.5,23.4,83.8,43.5,83.8l0.3,0c9.8-0.1,18.9-4,25.8-11c6.9-7,10.6-16.2,10.5-26
			C80,34.4,73.7,23,63.2,16.3z M39.7,21.3v-2.9h7.7v2.9H39.7z M46.7,15.4h-6.3l3-6.5L46.7,15.4z M35.7,24.9h15.6v2.8H35.7V24.9z
			 M31.5,31.3h23.9v19.3H31.5V31.3z M35.2,53.6H52v25.9c-2.7,0.7-5.4,1.1-8.2,1.1h-0.3c-2.9,0-5.6-0.4-8.3-1L35.2,53.6z"/>
	</g>
</g>
</svg>
