<?xml version="1.0" encoding="utf-8"?>
<!-- Generator: Adobe Illustrator 19.2.1, SVG Export Plug-In . SVG Version: 6.00 Build 0)  -->
<svg version="1.1" id="Слой_1" xmlns="http://www.w3.org/2000/svg" xmlns:xlink="http://www.w3.org/1999/xlink" x="0px" y="0px"
	 viewBox="0 0 67 67.4" style="enable-background:new 0 0 67 67.4;" xml:space="preserve">
<style type="text/css">
	.st0{fill:none;}
	.st1{fill:#FFFFFF;}
</style>
<g>
	<path class="st0" d="M17.2,53.6C17.2,53.6,17.2,53.7,17.2,53.6l0-29.4L17.2,53.6z"/>
	<path class="st0" d="M13.5,39.8l0,9.8c0.6,0.8,1.2,1.6,1.9,2.3l0-12.1L13.5,39.8z"/>
	<path class="st0" d="M50.9,39.8l0,12c0.7-0.7,1.3-1.5,1.9-2.3l0-9.7L50.9,39.8z"/>
	<polygon class="st0" points="49,24.3 49,53.6 49,53.6 49.1,24.3 	"/>
	<path class="st0" d="M11.6,38.8c0-0.5,0.4-0.9,0.9-0.9l2.8,0l0-14.6c0-0.5,0.4-0.9,0.9-0.9l5.3,0c0.1,0,0.1,0,0.2,0l28.2,0
		c0.5,0,0.9,0.4,0.9,0.9l0,14.6l2.8,0c0.5,0,0.9,0.4,0.9,0.9l0,7.7c1.8-3.4,2.8-7.3,2.8-11.4c0-13.4-10.9-24.4-24.4-24.4
		c-13.4,0-24.4,10.9-24.4,24.4c0,4.1,1,8.1,2.9,11.5L11.6,38.8z"/>
	<path d="M53.7,38l-2.8,0l0-14.6c0-0.5-0.4-0.9-0.9-0.9l-28.2,0c-0.1,0-0.1,0-0.2,0l-5.3,0c-0.5,0-0.9,0.4-0.9,0.9l0,14.6l-2.8,0
		c-0.5,0-0.9,0.4-0.9,0.9l0,7.8c0.5,1,1.2,2,1.8,2.9l0-9.8l1.9,0l0,12.1c0.6,0.6,1.2,1.2,1.8,1.8l0-29.4l0.1,0c0.1,0,0.1,0,0.2,0
		l31.5,0h0.1l0,29.3c0.6-0.6,1.3-1.1,1.8-1.8l0-12l1.9,0l0,9.7c0.7-0.9,1.3-1.9,1.8-2.9l0-7.7C54.6,38.4,54.2,38,53.7,38z"/>
	<path d="M43.6,49.4l-0.2,0c-1.4,0-2.6,1.1-2.6,2.6l0,6.3c0.6-0.2,1.2-0.4,1.8-0.7l0-5.6c0-0.4,0.3-0.7,0.7-0.7l0.2,0
		c0.4,0,0.7,0.3,0.7,0.7l0,4.8c0.6-0.3,1.2-0.7,1.8-1.1l0-3.8C46.2,50.5,45.1,49.4,43.6,49.4z"/>
	<path d="M35.3,47.2l-4.3,0c-1.7,0-3.1,1.4-3.1,3.1l0,8.7c0.6,0.1,1.2,0.2,1.8,0.3l0-9c0-0.7,0.6-1.3,1.3-1.3l4.3,0
		c0.7,0,1.3,0.6,1.3,1.3l0,9c0.6-0.1,1.2-0.2,1.8-0.3l0-8.7C38.4,48.6,37,47.2,35.3,47.2z"/>
	<path d="M22.7,49.4l-0.2,0c-1.4,0-2.6,1.1-2.6,2.6l0,3.8c0.6,0.4,1.2,0.7,1.8,1.1l0-4.9c0-0.4,0.3-0.7,0.7-0.7l0.2,0
		c0.4,0,0.7,0.3,0.7,0.7l0,5.6c0.6,0.3,1.2,0.5,1.8,0.7l0-6.3C25.3,50.5,24.1,49.4,22.7,49.4z"/>
	<g>
		
			<rect x="31" y="40.2" transform="matrix(1.566950e-003 -1 1 1.566950e-003 -8.4473 74.4412)" class="st0" width="4.1" height="2.5"/>
		<polygon class="st0" points="21.9,33.9 21.9,33.9 21.9,29.8 24.4,29.8 24.4,29.8 21.9,29.8 		"/>
		
			<rect x="41.1" y="40.2" transform="matrix(1.566922e-003 -1 1 1.566922e-003 1.5897 84.5254)" class="st0" width="4.1" height="2.5"/>
		<path d="M25.3,37.5l-4.4,0c-0.5,0-0.9,0.4-0.9,0.9l0,5.9c0,0.5,0.4,0.9,0.9,0.9l4.4,0c0.5,0,0.9-0.4,0.9-0.9l0-5.9
			C26.2,38,25.8,37.5,25.3,37.5z M24.4,43.5l-2.5,0l0-4.1l2.5,0L24.4,43.5z"/>
		<path d="M45.3,37.6l-4.4,0c-0.5,0-0.9,0.4-0.9,0.9l0,5.9c0,0.5,0.4,0.9,0.9,0.9l4.4,0c0.5,0,0.9-0.4,0.9-0.9l0-5.9
			C46.2,38,45.8,37.6,45.3,37.6z M44.4,43.5l-2.5,0l0-4.1l2.5,0L44.4,43.5z"/>
		<path d="M25.3,28l-4.4,0c-0.5,0-0.9,0.4-0.9,0.9l0,5.9c0,0.5,0.4,0.9,0.9,0.9l4.4,0c0.5,0,0.9-0.4,0.9-0.9l0-5.9
			C26.2,28.4,25.8,28,25.3,28z M24.4,29.8l0,4.1l-2.5,0h0l0-4.1L24.4,29.8L24.4,29.8z"/>
		<path d="M35.2,37.6l-4.4,0c-0.5,0-0.9,0.4-0.9,0.9l0,5.9c0,0.5,0.4,0.9,0.9,0.9l4.4,0c0.5,0,0.9-0.4,0.9-0.9l0-5.9
			C36.2,38,35.7,37.6,35.2,37.6z M34.3,43.5l-2.5,0l0-4.1l2.5,0L34.3,43.5z"/>
	</g>
	<g>
		<path class="st0" d="M25.3,28L21,28c-0.5,0-0.9,0.4-0.9,0.9l0,5.9c0,0.5,0.4,0.9,0.9,0.9l4.4,0c0.5,0,0.9-0.4,0.9-0.9l0-5.9
			C26.2,28.4,25.8,28,25.3,28z"/>
		<path class="st0" d="M35.3,37.6l-4.4,0c-0.5,0-0.9,0.4-0.9,0.9l0,5.9c0,0.5,0.4,0.9,0.9,0.9l4.4,0c0.5,0,0.9-0.4,0.9-0.9l0-5.9
			C36.2,38,35.8,37.6,35.3,37.6z"/>
		<path class="st0" d="M25.3,37.5l-4.4,0c-0.5,0-0.9,0.4-0.9,0.9l0,5.9c0,0.5,0.4,0.9,0.9,0.9l4.4,0c0.5,0,0.9-0.4,0.9-0.9l0-5.9
			C26.2,38,25.8,37.5,25.3,37.5z"/>
		<path class="st0" d="M45.3,28L41,28c-0.5,0-0.9,0.4-0.9,0.9l0,5.9c0,0.5,0.4,0.9,0.9,0.9l4.4,0c0.5,0,0.9-0.4,0.9-0.9l0-5.9
			C46.2,28.4,45.8,28,45.3,28z"/>
		<path class="st0" d="M45.3,37.6l-4.4,0c-0.5,0-0.9,0.4-0.9,0.9l0,5.9c0,0.5,0.4,0.9,0.9,0.9l4.4,0c0.5,0,0.9-0.4,0.9-0.9l0-5.9
			C46.2,38,45.8,37.6,45.3,37.6z"/>
		<path class="st1" d="M17.5,24.3c-0.1,0-0.1,0-0.2,0l-0.1,0v29.5c0.9,0.7,1.8,1.4,2.8,2.1l0-3.8c0-1.4,1.2-2.6,2.6-2.6l0.2,0
			c1.4,0,2.6,1.2,2.6,2.6l0,6.3c0.8,0.3,1.7,0.5,2.5,0.7l0-8.7c0-1.7,1.4-3.1,3.1-3.1l4.3,0c1.7,0,3.1,1.4,3.1,3.1l0,8.7
			c0.9-0.2,1.7-0.4,2.5-0.7l0-6.3c0-1.4,1.2-2.6,2.6-2.6l0.2,0c1.4,0,2.6,1.2,2.6,2.6l0,3.8c1-0.6,1.9-1.3,2.8-2.1V24.3L17.5,24.3z
			 M26.2,44.4c0,0.5-0.4,0.9-0.9,0.9l-4.4,0c-0.5,0-0.9-0.4-0.9-0.9l0-5.9c0-0.5,0.4-0.9,0.9-0.9l4.4,0c0.5,0,0.9,0.4,0.9,0.9
			L26.2,44.4z M26.2,34.9c0,0.5-0.4,0.9-0.9,0.9l-4.4,0c-0.5,0-0.9-0.4-0.9-0.9l0-5.9c0-0.5,0.4-0.9,0.9-0.9l4.4,0
			c0.5,0,0.9,0.4,0.9,0.9L26.2,34.9z M30,28.9c0-0.5,0.4-0.9,0.9-0.9l4.4,0c0.5,0,0.9,0.4,0.9,0.9l0,5.9c0,0.5-0.4,0.9-0.9,0.9
			l-4.4,0c-0.5,0-0.9-0.4-0.9-0.9L30,28.9z M36.2,44.4c0,0.5-0.4,0.9-0.9,0.9l-4.4,0c-0.5,0-0.9-0.4-0.9-0.9l0-5.9
			c0-0.5,0.4-0.9,0.9-0.9l4.4,0c0.5,0,0.9,0.4,0.9,0.9L36.2,44.4z M46.2,44.4c0,0.5-0.4,0.9-0.9,0.9l-4.4,0c-0.5,0-0.9-0.4-0.9-0.9
			l0-5.9c0-0.5,0.4-0.9,0.9-0.9l4.4,0c0.5,0,0.9,0.4,0.9,0.9L46.2,44.4z M46.2,34.9c0,0.5-0.4,0.9-0.9,0.9l-4.4,0
			c-0.5,0-0.9-0.4-0.9-0.9l0-5.9c0-0.5,0.4-0.9,0.9-0.9l4.4,0c0.5,0,0.9,0.4,0.9,0.9L46.2,34.9z"/>
		<path d="M30.9,35.7l4.4,0c0.5,0,0.9-0.4,0.9-0.9l0-5.9c0-0.5-0.4-0.9-0.9-0.9l-4.4,0c-0.5,0-0.9,0.4-0.9,0.9l0,5.9
			C30,35.3,30.4,35.7,30.9,35.7z M31.8,29.8l2.5,0l0,4.1l-2.5,0L31.8,29.8z"/>
	</g>
	<g>
		<polygon class="st0" points="41.9,29.9 44.4,29.9 44.4,29.8 41.9,29.8 41.9,33.9 41.9,33.9 		"/>
		<path d="M45.3,28l-4.4,0c-0.5,0-0.9,0.4-0.9,0.9l0,5.9c0,0.5,0.4,0.9,0.9,0.9l4.4,0c0.5,0,0.9-0.4,0.9-0.9l0-5.9
			C46.2,28.4,45.8,28,45.3,28z M41.9,29.8l2.5,0l0,0.1l0,4l-2.5,0l0,0L41.9,29.8z"/>
	</g>
	<path d="M33.1,62.5c15.1,0,27.3-12.2,27.3-27.3S48.2,7.9,33.1,7.9C18,7.9,5.8,20.1,5.8,35.2S18,62.5,33.1,62.5z M33.1,10.8
		c13.4,0,24.4,10.9,24.4,24.4c0,4.1-1,8-2.8,11.4c-0.5,1-1.2,2-1.8,2.9c-0.6,0.8-1.2,1.6-1.9,2.3c-0.6,0.6-1.2,1.2-1.8,1.8
		c0,0,0,0,0,0c-0.9,0.8-1.8,1.5-2.8,2.1c-0.6,0.4-1.2,0.7-1.8,1.1c-0.5,0.3-1.1,0.5-1.6,0.8c-0.6,0.3-1.2,0.5-1.8,0.7
		c-0.8,0.3-1.7,0.5-2.5,0.7c-0.6,0.1-1.2,0.2-1.8,0.3c-1.1,0.2-2.3,0.2-3.4,0.2c-1.2,0-2.3-0.1-3.4-0.2c-0.6-0.1-1.2-0.2-1.8-0.3
		c-0.9-0.2-1.7-0.4-2.5-0.7c-0.6-0.2-1.2-0.4-1.8-0.7c-0.5-0.2-1.1-0.5-1.6-0.8c-0.6-0.3-1.2-0.7-1.8-1.1c-1-0.6-1.9-1.3-2.8-2.1
		c0,0,0,0,0,0c-0.6-0.6-1.3-1.1-1.8-1.8c-0.7-0.7-1.3-1.5-1.9-2.3c-0.7-0.9-1.3-1.9-1.8-2.9c-1.8-3.4-2.9-7.3-2.9-11.5
		C8.7,21.8,19.7,10.8,33.1,10.8z"/>
</g>
</svg>
