<?xml version="1.0" encoding="utf-8"?>
<!-- Generator: Adobe Illustrator 19.2.1, SVG Export Plug-In . SVG Version: 6.00 Build 0)  -->
<svg version="1.1" id="Слой_1" xmlns="http://www.w3.org/2000/svg" xmlns:xlink="http://www.w3.org/1999/xlink" x="0px" y="0px"
	 viewBox="0 0 56 66" style="enable-background:new 0 0 56 66;" xml:space="preserve">
<style type="text/css">
	.st0{fill:#FFFFFF;}
	.st1{display:none;}
	.st2{display:inline;}
</style>
<path class="st0" d="M49.5,34.1c0-0.1,0-0.2,0-0.3c-0.6-3.1-1.9-6.1-3.7-8.7l-0.1-0.1l-0.9,2.2l0,0c1,1.3,1.7,2.8,2.3,4.2
	c-0.2,0-0.4-0.1-0.5-0.1v0c0,0,0,0,0,0c-0.2,0-0.3,0-0.4,0l0,0c-0.9,0.1-1.7,0.4-2.2,1c-0.9,1-0.8,2.4-0.8,2.5l1.8-0.1
	c0,0,0-0.8,0.4-1.2c0.2-0.3,0.7-0.4,1.2-0.4c0.2,0,0.6,0.1,0.9,0.3c0.1,0.1,0.3,0.3,0.4,0.5c0.6,2.9,0.5,5.9-0.3,9h-5.1v1.8h4.5
	c-0.2,0.5-0.4,1-0.6,1.5h-7v1.8h6.2c-2.4,4.4-6.2,7.7-10.7,9.5l7.6-39.5l-2.3,0v-4.1h-4.6v-3.9h3.4V12h5.9V6.5h-4.2V4.7h-7v5.5h0
	v3.9h-4.3v4l-2.3,0l-8.7,39c-4.9-2.3-8.6-6.4-10.5-11.4c-0.5-1.4-0.9-2.9-1.1-4.4c0-0.2,0.1-0.7,0.4-1c0.2-0.3,0.7-0.4,1.2-0.4
	c0.2,0,0.6,0.1,0.9,0.3c0.3,0.3,0.4,0.7,0.4,1.3h1.8c0,0,0-0.8,0.4-1.2c0.2-0.3,0.7-0.4,1.2-0.4c0.2,0,0.6,0.1,0.9,0.3
	c0.3,0.3,0.4,0.7,0.4,1.3h1.8c0-1.1-0.3-2-1-2.6C14.4,38.2,13.5,38,13,38v0c0,0,0,0,0,0c-0.2,0-0.3,0-0.4,0l0,0
	c-0.9,0.1-1.6,0.4-2.2,0.9c0,0-0.1-0.1-0.1-0.1C9.6,38.2,8.7,38,8.2,38v0c0,0,0,0,0,0c-0.2,0-0.3,0-0.4,0l0,0c-0.6,0-1,0.2-1.5,0.4
	c0-3,0.6-5.9,1.8-8.7c0.2-0.4,0.3-0.7,0.5-1.1h7v-1.8H9.7c3-4.9,7.4-7.8,13-8.7l0.1,0l1-2.4l-0.2,0C16,16.9,9.6,21.8,6.4,28.9
	c-5.2,11.5,0,25,11.4,30.1c3,1.3,6.1,2,9.3,2c0,0,0,0,0,0c9,0,17.1-5.3,20.8-13.4C49.9,43.3,50.4,38.6,49.5,34.1z"/>
<g class="st1">
	<circle class="st2" cx="27.1" cy="37.9" r="22.7"/>
</g>
<g>
	<g>
		<polygon points="31.9,23.4 31.9,21.1 30.1,21.1 30.1,23.4 		"/>
		<rect x="32.7" y="21.1" transform="matrix(1 -4.199963e-003 4.199963e-003 1 -9.320808e-002 0.1413)" width="1.8" height="2.3"/>
		<polyline points="37.1,21.2 37.1,23.5 35.3,23.5 35.3,21.2 		"/>
		<rect x="29" y="27.7" transform="matrix(1 -4.999937e-003 4.999937e-003 1 -0.1441 0.1499)" width="1.8" height="2.3"/>
		<rect x="31.6" y="27.7" transform="matrix(1 -4.499954e-003 4.499954e-003 1 -0.1297 0.1465)" width="1.8" height="2.3"/>
		<rect x="34.2" y="27.8" transform="matrix(1 -4.999937e-003 4.999937e-003 1 -0.1443 0.1758)" width="1.8" height="2.3"/>
		<rect x="27.5" y="35.1" transform="matrix(1 -5.899897e-003 5.899897e-003 1 -0.2134 0.1684)" width="1.8" height="2.3"/>
		<rect x="30.1" y="35.1" transform="matrix(1 -4.499954e-003 4.499954e-003 1 -0.1628 0.1399)" width="1.8" height="2.3"/>
		<rect x="32.7" y="35.2" transform="matrix(1 -4.499954e-003 4.499954e-003 1 -0.1631 0.1516)" width="1.8" height="2.3"/>
		<rect x="26" y="42.5" transform="matrix(1 -4.599951e-003 4.599951e-003 1 -0.2003 0.1245)" width="1.8" height="2.3"/>
		<rect x="28.6" y="42.5" transform="matrix(1 -5.299925e-003 5.299925e-003 1 -0.2307 0.1572)" width="1.8" height="2.3"/>
		<rect x="31.2" y="42.5" transform="matrix(1 -4.199963e-003 4.199963e-003 1 -0.1831 0.1354)" width="1.8" height="2.3"/>
		<rect x="24.6" y="49.8" transform="matrix(1 -4.299961e-003 4.299961e-003 1 -0.2189 0.1101)" width="1.8" height="2.3"/>
		<rect x="27.2" y="49.8" transform="matrix(1 -4.999937e-003 4.999937e-003 1 -0.2544 0.141)" width="1.8" height="2.3"/>
		<rect x="29.8" y="49.9" transform="matrix(1 -4.499954e-003 4.499954e-003 1 -0.2293 0.1385)" width="1.8" height="2.3"/>
	</g>
</g>
<path d="M49.5,34.1c0-0.1,0-0.2,0-0.3c-0.6-3.1-1.9-6.1-3.7-8.7l-0.1-0.1l-0.9,2.2l0,0c1,1.3,1.7,2.8,2.3,4.2
	c-0.2,0-0.4-0.1-0.5-0.1v0c0,0,0,0,0,0c-0.2,0-0.3,0-0.4,0l0,0c-0.9,0.1-1.7,0.4-2.2,1c-0.9,1-0.8,2.4-0.8,2.5l1.8-0.1
	c0,0,0-0.8,0.4-1.2c0.2-0.3,0.7-0.4,1.2-0.4c0.2,0,0.6,0.1,0.9,0.3c0.1,0.1,0.3,0.3,0.4,0.5c0.6,2.9,0.5,5.9-0.3,9h-5.1v1.8h4.5
	c-0.2,0.5-0.4,1-0.6,1.5h-7v1.8h6.2c-2.4,4.4-6.2,7.7-10.7,9.5l7.6-39.5l-2.3,0v-4.1h-4.6v-3.9h3.4V12h5.9V6.5h-4.2V4.7h-7v5.5h0
	v3.9h-4.3v4l-2.3,0l-8.7,39c-4.9-2.3-8.6-6.4-10.5-11.4c-0.5-1.4-0.9-2.9-1.1-4.4c0-0.2,0.1-0.7,0.4-1c0.2-0.3,0.7-0.4,1.2-0.4
	c0.2,0,0.6,0.1,0.9,0.3c0.3,0.3,0.4,0.7,0.4,1.3h1.8c0,0,0-0.8,0.4-1.2c0.2-0.3,0.7-0.4,1.2-0.4c0.2,0,0.6,0.1,0.9,0.3
	c0.3,0.3,0.4,0.7,0.4,1.3h1.8c0-1.1-0.3-2-1-2.6C14.4,38.2,13.5,38,13,38v0c0,0,0,0,0,0c-0.2,0-0.3,0-0.4,0l0,0
	c-0.9,0.1-1.6,0.4-2.2,0.9c0,0-0.1-0.1-0.1-0.1C9.6,38.2,8.7,38,8.2,38v0c0,0,0,0,0,0c-0.2,0-0.3,0-0.4,0l0,0c-0.6,0-1,0.2-1.5,0.4
	c0-3,0.6-5.9,1.8-8.7c0.2-0.4,0.3-0.7,0.5-1.1h7v-1.8H9.7c3-4.9,7.4-7.8,13-8.7l0.1,0l1-2.4l-0.2,0C16,16.9,9.6,21.8,6.4,28.9
	c-5.2,11.5,0,25,11.4,30.1c0.7,0.3,1.5,0.6,2.2,0.9c0,0,0.6,0.2,0.9,0.3c0.4,0.1,1,0.3,1,0.3c1.7,0.4,3.4,0.6,5.2,0.6c0,0,0,0,0,0
	c1.8,0,3.5-0.2,5.2-0.6l0,0c1.8-0.6,1.8-0.6,1.8-0.6c6-2,11.1-6.4,13.7-12.3C49.9,43.3,50.4,38.6,49.5,34.1z M40.7,8.3h2.2v1.8h-2.2
	V8.3z M35.4,6.5h3.4v1.8h-3.4V6.5z M30.9,15.7h7.5v2.4l-7.5,0V15.7z M28.4,19.9l11.7,0l-0.9,4.7l-11.8-0.1L28.4,19.9z M27,26.2
	l11.9,0.1L37.8,32l-12-0.1L27,26.2z M25.4,33.5l12.1,0.1l-1.1,5.7l-12.3-0.1L25.4,33.5z M23.8,40.9L36.1,41L35,46.7l-12.5-0.1
	L23.8,40.9z M32.8,58.3c-1.8,0.5-3.7,0.8-5.6,0.8c-2.5,0-4.9-0.4-7.1-1.3l0.6-2.6l0,0.4l12.7,0.1L32.8,58.3z M33.6,54.1l-12.7-0.1
	l1.3-5.7l12.6,0.1L33.6,54.1z"/>
</svg>
