<?xml version="1.0" encoding="utf-8"?>
<!-- Generator: Adobe Illustrator 19.2.1, SVG Export Plug-In . SVG Version: 6.00 Build 0)  -->
<svg version="1.1" id="Слой_1" xmlns="http://www.w3.org/2000/svg" xmlns:xlink="http://www.w3.org/1999/xlink" x="0px" y="0px"
	 viewBox="0 0 87 98.7" style="enable-background:new 0 0 87 98.7;" xml:space="preserve">
<style type="text/css">
	.st0{fill:#FFFFFF;}
	.st1{display:none;}
	.st2{display:inline;}
</style>
<g>
	<path class="st0" d="M62.2,20.6L62,20.4l0,4.1l0.1,0c7.9,5.1,12.5,12.5,13.6,22c-0.7-0.3-1.5-0.4-1.9-0.4v0c0,0,0,0,0,0
		c-0.3,0-0.5,0-0.6,0l0,0c-1.4,0.1-2.6,0.6-3.5,1.5c-0.1-0.1-0.1-0.2-0.2-0.2c-1.2-1.1-2.6-1.3-3.4-1.3v0c0,0,0,0,0,0
		c-0.3,0-0.5,0-0.6,0l0,0c-1.5,0.1-2.7,0.6-3.6,1.6c-1.5,1.6-1.3,3.6-1.3,3.9h2.9c0,0-0.1-1.2,0.5-1.9c0.4-0.4,1.1-0.6,2-0.7
		c0.4,0,1,0.1,1.5,0.5c0.4,0.4,0.7,1.1,0.7,2h3c0,0,0-1.2,0.7-1.9c0.4-0.4,1.1-0.6,2-0.7c0.4,0,1,0.1,1.5,0.5
		c0.4,0.4,0.7,0.9,0.8,1.7c0,8.1-2.8,15.8-8.1,21.8C66.8,72.1,64.1,69,61,64l-0.2-0.5c1.7-0.8,2.9-2.4,2.9-4.2
		c0-2.6-2.5-4.8-5.5-4.8h-2.1c-1.2-2.5-2.3-5.1-3.2-7.7c1.5-0.5,2.5-2.2,2.5-4.3c0-2.4-1.5-4.4-3.3-4.4h-1.7l-0.6-1.7
		c-0.5-2.3-1-4.7-1.4-7V17.9l0,0c-0.1-1.8-1.3-4.9-4.6-5.7V4.1l-1.6-1.8l-1.5,1.8v8.1c-3.3,0.7-4.5,3.8-4.6,5.7h0v11.2
		c-0.4,2.5-0.8,4.9-1.4,7.3l-0.6,1.7h-1.2c-1.8,0-3.4,2-3.4,4.4c0,1.9,0.9,3.4,2.1,4.1c-1,2.7-2.1,5.3-3.3,7.9h-1.5
		c-3,0-5.5,2.2-5.5,4.8c0,1.6,0.9,2.9,2.2,3.8L23,64c-2.7,4.2-5.1,7.1-6.4,8.6C12,66.9,9.1,59.7,9,51.7c0-4.4,0.6-8.5,1.9-12.3
		c0.4-0.3,0.9-0.4,1.6-0.4c0.4,0,1,0.1,1.5,0.5c0.4,0.4,0.7,1.1,0.7,2h3c0-1.8-0.6-3.2-1.6-4.2c-1.2-1.1-2.6-1.3-3.4-1.3v0
		c0,0,0,0,0,0c-0.1,0-0.2,0-0.2,0c2.5-5.1,6.4-9.3,11.5-12.4l0.1,0l0-3.8L23.7,20c-11.1,6.7-18,18.8-17.9,31.8
		C6,71.8,22.4,88.1,42.5,88.1l0.3,0C63,88,79.3,71.4,79.2,51.2C79.1,38.7,72.7,27.3,62.2,20.6z M60.7,79.5v-0.3c0.1,0,0.3,0,0.4,0.1
		C60.9,79.4,60.8,79.5,60.7,79.5z M42.8,84.9l-0.3,0c-6.1,0-11.9-1.7-16.8-4.6c2-2.7,7.8-9.1,16.5-9.2c0.1,0,0.2,0,0.3,0
		c8.7,0,13.8,6.5,16,9.3c0.1,0.1,0.2,0.2,0.3,0.3C53.8,83.4,48.4,84.9,42.8,84.9z M43,47l2.8,7.6h-7.1l2.8-7.6H43z"/>
</g>
<g class="st1">
	<circle class="st2" cx="42.6" cy="51.1" r="36.5"/>
</g>
<g>
	<path d="M62.2,20.6L62,20.4l0,4.1l0.1,0c7.9,5.1,12.5,12.5,13.6,22c-0.7-0.3-1.5-0.4-1.9-0.4v0c0,0,0,0,0,0c-0.3,0-0.5,0-0.6,0l0,0
		c-1.4,0.1-2.6,0.6-3.5,1.5c-0.1-0.1-0.1-0.2-0.2-0.2c-1.2-1.1-2.6-1.3-3.4-1.3v0c0,0,0,0,0,0c-0.3,0-0.5,0-0.6,0l0,0
		c-1.5,0.1-2.7,0.6-3.6,1.6c-1.5,1.6-1.3,3.6-1.3,3.9h2.9c0,0-0.1-1.2,0.5-1.9c0.4-0.4,1.1-0.6,2-0.7c0.4,0,1,0.1,1.5,0.5
		c0.4,0.4,0.7,1.1,0.7,2h3c0,0,0-1.2,0.7-1.9c0.4-0.4,1.1-0.6,2-0.7c0.4,0,1,0.1,1.5,0.5c0.4,0.4,0.7,0.9,0.8,1.7
		c0,8.1-2.8,15.8-8.1,21.8C66.8,72.1,64.1,69,61,64l-0.2-0.5c1.7-0.8,2.9-2.4,2.9-4.2c0-2.6-2.5-4.8-5.5-4.8h-2.1
		c-1.2-2.5-2.3-5.1-3.2-7.7c1.5-0.5,2.5-2.2,2.5-4.3c0-2.4-1.5-4.4-3.3-4.4h-1.7l-0.6-1.7c-0.5-2.3-1-4.7-1.4-7V17.9l0,0
		c-0.1-1.8-1.3-4.9-4.6-5.7V4.1l-1.6-1.8l-1.5,1.8v8.1c-3.3,0.7-4.5,3.8-4.6,5.7h0v11.2c-0.4,2.5-0.8,4.9-1.4,7.3l-0.6,1.7h-1.2
		c-1.8,0-3.4,2-3.4,4.4c0,1.9,0.9,3.4,2.1,4.1c-1,2.7-2.1,5.3-3.3,7.9h-1.5c-3,0-5.5,2.2-5.5,4.8c0,1.6,0.9,2.9,2.2,3.8L23,64
		c-2.7,4.2-5.1,7.1-6.4,8.6C12,66.9,9.1,59.7,9,51.7c0-4.4,0.6-8.5,1.9-12.3c0.4-0.3,0.9-0.4,1.6-0.4c0.4,0,1,0.1,1.5,0.5
		c0.4,0.4,0.7,1.1,0.7,2h3c0-1.8-0.6-3.2-1.6-4.2c-1.2-1.1-2.6-1.3-3.4-1.3v0c0,0,0,0,0,0c-0.1,0-0.2,0-0.2,0
		c2.5-5.1,6.4-9.3,11.5-12.4l0.1,0l0-3.8L23.7,20c-11.1,6.7-18,18.8-17.9,31.8C6,71.8,22.4,88.1,42.5,88.1l0.3,0
		C63,88,79.3,71.4,79.2,51.2C79.1,38.7,72.7,27.3,62.2,20.6z M60.7,79.5v-0.3c0.1,0,0.3,0,0.4,0.1C60.9,79.4,60.8,79.5,60.7,79.5z
		 M42.8,84.9l-0.3,0c-6.1,0-11.9-1.7-16.8-4.6c2-2.7,7.8-9.1,16.5-9.2c0.1,0,0.2,0,0.3,0c8.7,0,13.8,6.5,16,9.3
		c0.1,0.1,0.2,0.2,0.3,0.3C53.8,83.4,48.4,84.9,42.8,84.9z M43,47l2.8,7.6h-7.1l2.8-7.6H43z M48.9,54.6L46.1,47h3.6
		c0.9,2.6,1.9,5.1,3.1,7.6H48.9z M39,27v-6.2h6.2V27H39z M42,15h0.2c2.4,0,3,2,3.1,2.9H39C39.1,17.1,39.6,15,42,15z M37.4,37.4
		l0.1-0.2c0.6-2.4,1-4.8,1.4-7.2h6.6c0.4,2.4,0.8,4.8,1.4,7.2l0.3,0.9H37.1L37.4,37.4z M32.8,40.9H52c0.7,0,1.3,0.8,1.3,1.7
		s-0.6,1.7-1.3,1.7H32.8c-0.7,0-1.3-0.8-1.3-1.7S32.1,40.9,32.8,40.9z M34.5,47h3.8l-2.8,7.6h-4C32.6,52.1,33.6,49.6,34.5,47z
		 M26.8,57.5h31.4c1.2,0,2.1,0.8,2.1,1.8c0,1-0.9,1.8-2.1,1.8H26.8c-1.2,0-2.1-0.8-2.1-1.8C24.7,58.3,25.6,57.5,26.8,57.5z
		 M25.6,65.6l0.7-1.4c0.2,0,0.3,0,0.5,0h31l0.7,1.3l0.1,0.1c3.4,5.4,6.3,8.7,7.4,9.9c-1.4,1.4-3,2.7-4.6,3.8
		c-0.1-0.2-0.3-0.4-0.5-0.6c-2.2-2.9-8.2-10.4-18.3-10.4c-0.1,0-0.2,0-0.3,0c-10.3,0.2-16.8,7.5-19,10.5c-1.6-1.2-3.1-2.4-4.5-3.9
		C20,73.4,22.6,70.3,25.6,65.6z"/>
</g>
</svg>
