<?xml version="1.0" encoding="utf-8"?>
<!-- Generator: Adobe Illustrator 19.2.1, SVG Export Plug-In . SVG Version: 6.00 Build 0)  -->
<svg version="1.1" id="Слой_1" xmlns="http://www.w3.org/2000/svg" xmlns:xlink="http://www.w3.org/1999/xlink" x="0px" y="0px"
	 viewBox="0 0 58 57" style="enable-background:new 0 0 58 57;" xml:space="preserve">
<style type="text/css">
	.st0{fill:#FFFFFF;}
</style>
<g>
	<g>
		<path class="st0" d="M50.3,26c-1.4-1-3.1-4.3-4.7-4.3c-1.5,0,0.2-0.6-0.7,0.3c-0.8,0.8-1.4,1.8-2.3,2.6c-2.1,1.9-4.4,3.4-6,5.8
			c-0.8,1.3-2.1,3.1-3.6,2.7c-1.5-0.3-2.7-2.2-3.5-3.5c-0.7-1.1-0.5-2-1.8-2.4c-0.8-0.2-1.5-0.1-2.3,0.1c-0.1,0-0.2,0.1-0.4,0.1
			c-0.3,2-5,3.9-5,3.9s-2.8-3.1-3.9-3.8c-0.5-0.3-0.9-0.6-1.3-1c-0.1-0.1-0.1-0.1-0.2-0.2c-2.4,0.9-4.5,2.6-6,4.6
			c-0.6,0.8-1.3,1.3-2.1,1.4c0.5,3.6,1.8,7,3.7,9.9l0,0l0.2,0.2c4.1,6,11,9.9,18.8,9.9l0.2,0c6.1,0,11.8-2.5,16.1-6.8
			c4.3-4.4,6.6-10.1,6.6-16.2c0-1.5-0.9-1-1.2-2.5C50.7,26.5,50.5,26.3,50.3,26z"/>
	</g>
</g>
<g>
	<g>
		<path d="M50.7,23.8c0.1,0.5,0.2,1,0.3,1.5l-6.4-5.8l-4.5,5.2l-6.7,7.7l-1.1-1.1l-1.9-1.9l-4.6-4.6l-2.2,2.3l-1.9,2.1l-1.2,1.3
			l-2.8-2.6l-1.9-1.8l-1.4-1.3l-6.9,6.5c-0.1-0.8-0.1-1.6-0.1-2.3c0-2.5,0.3-4.8,0.9-7c0.3-0.2,0.6-0.2,0.8-0.2c0.6,0,1,0.1,1.3,0.4
			c0.4,0.4,0.4,1.3,0.4,1.3h1.9c0-0.2,0.1-1.6-0.8-2.6c-0.6-0.6-1.4-1-2.4-1l0,0c0,0-0.2,0-0.4,0c0,0,0,0,0,0c1.4-3.2,3.5-6,6.4-8.1
			c0.5-0.4,1-0.8,1.7-1.1C20,9.2,23,7.3,29.8,7.3c7.4,0,12.3,3.9,12.3,3.9c0,0,0,0,0,0c3.9,2.5,6.6,5.9,8,10.1
			C50.2,21.2,50.6,23.8,50.7,23.8c0.6,0.1,1.6,0.3,2.2,0.5c-0.6-6.7-5.4-13.2-10.7-15.7c0,0-5.3-3.4-12.4-3.2
			c-8,0.2-9.3,1.1-12.8,2.8c-5.9,2.9-9.6,8.9-11.1,15.2c0,0-0.1,0-0.1,0l0.1,0c-0.4,1.8-0.7,3.7-0.6,5.6c0,4.9,1.6,9.5,4.1,13.3l0,0
			l0.2,0.2c4.4,6.3,11.6,10.4,19.8,10.4l0.2,0c6.4,0,12.4-2.6,16.9-7.2c4.5-4.6,7-10.6,6.9-17c0-1.5-0.1-2.9-0.4-4.4
			C52.2,24.1,51.5,23.9,50.7,23.8z M7.9,33.6l6.5-6.1l4.8,4.4l-8.3,8.8C9.5,38.6,8.4,36.2,7.9,33.6z M44.9,44.2
			c-4.1,4.2-9.6,6.5-15.5,6.6l-0.2,0c-7,0-13.2-3.3-17.3-8.5l13.8-14.6l7.7,7.7l11.3-13l6.4,5.9c0,0,0,0,0,0
			C51.4,34.2,49.1,39.9,44.9,44.2z"/>
		<rect x="35.6" y="29" transform="matrix(0.6674 -0.7447 0.7447 0.6674 -8.6176 40.6765)" width="11.2" height="1.9"/>
		<rect x="31.9" y="33.7" transform="matrix(0.6673 -0.7448 0.7448 0.6673 -12.1244 42.1534)" width="18.5" height="1.9"/>
		<rect x="37.8" y="34" transform="matrix(0.6672 -0.7448 0.7448 0.6672 -11.1405 45.0697)" width="14.2" height="1.9"/>
		<rect x="9.2" y="31.3" transform="matrix(0.706 -0.7082 0.7082 0.706 -19.1943 18.2791)" width="6.5" height="1.9"/>
		<rect x="13.7" y="32.1" transform="matrix(0.7059 -0.7083 0.7083 0.7059 -18.8998 20.679)" width="3.6" height="1.9"/>
		<rect x="28.2" y="29.5" transform="matrix(0.6806 -0.7327 0.7327 0.6806 -16.3902 32.5444)" width="1.9" height="11.2"/>
		<rect x="28.8" y="30.4" transform="matrix(0.6805 -0.7327 0.7327 0.6805 -19.6602 34.544)" width="1.9" height="18.8"/>
		<rect x="25" y="33.3" transform="matrix(0.6806 -0.7327 0.7327 0.6806 -21.3051 31.9266)" width="1.9" height="14.2"/>
		<rect x="20.2" y="36.9" transform="matrix(0.6955 -0.7185 0.7185 0.6955 -22.5858 27.5038)" width="1.9" height="7.1"/>
	</g>
</g>
</svg>
