<?xml version="1.0" encoding="utf-8"?>
<!-- Generator: Adobe Illustrator 19.2.1, SVG Export Plug-In . SVG Version: 6.00 Build 0)  -->
<svg version="1.1" id="Слой_1" xmlns="http://www.w3.org/2000/svg" xmlns:xlink="http://www.w3.org/1999/xlink" x="0px" y="0px"
	 viewBox="0 0 75.5 76.8" style="enable-background:new 0 0 75.5 76.8;" xml:space="preserve">
<style type="text/css">
	.st0{display:none;}
	.st1{display:inline;}
	.st2{fill:#FFFFFF;}
	.st3{fill:none;}
</style>
<g class="st0">
	<circle class="st1" cx="138.6" cy="24.3" r="36.5"/>
</g>
<g class="st0">
	<circle class="st1" cx="138.6" cy="24.3" r="36.5"/>
</g>
<g>
	<rect x="13.8" y="8.7" class="st2" width="3.4" height="2.8"/>
	<path class="st2" d="M46.1,27.5c-1.1,0-2.6,0-4.2,0c1.4,0.7,2.8,1.5,4.2,2.2L46.1,27.5z"/>
	<rect x="20.2" y="5.9" class="st2" width="5.2" height="2.8"/>
	<path class="st2" d="M26.7,22.5c-4.8,2.7-9.7,5.4-14.5,8.1c9.9,0,19.8,0.1,29.7,0.1C36.8,28,31.8,25.2,26.7,22.5z"/>
	<path class="st2" d="M8.9,27.4c-0.4,0.8-0.7,1.6-1,2.4c1.4-0.8,2.8-1.6,4.3-2.4C10.7,27.4,9.6,27.4,8.9,27.4z"/>
	<path class="st2" d="M12.2,63.1c-0.3-0.3-0.5-0.6-0.8-0.9C11.7,62.5,12,62.8,12.2,63.1z"/>
	<path class="st2" d="M46.2,33.6L46.2,33.6L46.2,33.6C33,33.5,19.9,33.4,6.8,33.4c-0.3,1.3-0.5,2.6-0.6,3.9h39.9V33.6z"/>
	<path class="st2" d="M48.5,73.5c-0.2,0-0.5,0.1-0.7,0.1C48,73.6,48.3,73.6,48.5,73.5z"/>
	<path class="st2" d="M32.1,74.4c-0.1,0-0.3-0.1-0.4-0.1C31.8,74.3,31.9,74.3,32.1,74.4z"/>
	<path class="st2" d="M28.6,73.4c0,0-0.1,0-0.1,0C28.5,73.4,28.6,73.4,28.6,73.4z"/>
	<path class="st2" d="M29.3,73.6C29.3,73.6,29.2,73.6,29.3,73.6C29.2,73.6,29.3,73.6,29.3,73.6z"/>
	<path class="st2" d="M41.4,74.9c-0.2,0-0.5,0.1-0.7,0.1C40.9,74.9,41.1,74.9,41.4,74.9z"/>
	<path class="st2" d="M36.4,74.9c-0.2,0-0.4,0-0.5,0C36,74.9,36.2,74.9,36.4,74.9z"/>
	<path class="st2" d="M47.7,73.7c-0.2,0.1-0.5,0.2-0.7,0.3C47.2,73.8,47.5,73.7,47.7,73.7z"/>
	<path class="st2" d="M14.8,65.7c-0.3-0.3-0.6-0.5-0.9-0.8C14.2,65.1,14.5,65.4,14.8,65.7z"/>
	<path class="st2" d="M43.6,74.6c-0.3,0-0.6,0.1-0.9,0.1C43,74.7,43.3,74.7,43.6,74.6z"/>
	<path class="st2" d="M45.6,74.3c-0.3,0.1-0.6,0.1-0.9,0.2C45,74.4,45.3,74.3,45.6,74.3z"/>
	<path class="st2" d="M23.9,71.7c-0.4-0.2-0.8-0.4-1.2-0.6C23.1,71.4,23.5,71.6,23.9,71.7z"/>
	<path class="st2" d="M19.1,69.1c-0.4-0.2-0.7-0.5-1.1-0.7C18.4,68.6,18.8,68.9,19.1,69.1z"/>
	<path class="st2" d="M17.7,68.1c-0.4-0.3-0.7-0.5-1-0.8C16.9,67.5,17.3,67.8,17.7,68.1z"/>
	<path class="st2" d="M16.2,66.9c-0.3-0.3-0.6-0.5-0.9-0.8C15.5,66.4,15.8,66.6,16.2,66.9z"/>
	<path class="st2" d="M20.7,70.1c-0.4-0.2-0.8-0.5-1.1-0.7C19.9,69.6,20.3,69.8,20.7,70.1z"/>
	<path class="st2" d="M22.3,70.9c-0.4-0.2-0.8-0.4-1.2-0.6C21.5,70.5,21.9,70.7,22.3,70.9z"/>
	<path class="st2" d="M27.2,73.1c-0.4-0.1-0.8-0.3-1.2-0.4C26.4,72.8,26.8,72.9,27.2,73.1z"/>
	<path class="st2" d="M25.5,72.4c-0.4-0.2-0.8-0.3-1.2-0.5C24.7,72.1,25.1,72.3,25.5,72.4z"/>
	<path class="st2" d="M50.8,72.8c-0.1,0-0.2,0.1-0.3,0.1C50.7,72.8,50.7,72.8,50.8,72.8z"/>
	<path class="st2" d="M34.2,74.7c-0.2,0-0.3-0.1-0.5-0.1C33.9,74.7,34.1,74.7,34.2,74.7z"/>
	<path class="st2" d="M13.5,64.4c-0.3-0.3-0.6-0.6-0.8-0.9C12.9,63.9,13.2,64.1,13.5,64.4z"/>
	<g>
		<rect x="20.2" y="5.9" class="st3" width="5.2" height="2.8"/>
		<path class="st3" d="M8.9,27.4c-0.4,0.8-0.7,1.6-1,2.4c1.4-0.8,2.8-1.6,4.3-2.4C10.7,27.4,9.6,27.4,8.9,27.4z"/>
		<path class="st3" d="M46.1,27.5c-1.1,0-2.6,0-4.2,0c1.4,0.7,2.8,1.5,4.2,2.2L46.1,27.5z"/>
		<path class="st3" d="M26.7,22.5c-4.8,2.7-9.7,5.4-14.5,8.1c9.9,0,19.8,0.1,29.7,0.1C36.8,28,31.8,25.2,26.7,22.5z"/>
		<path class="st3" d="M46.2,33.6L46.2,33.6L46.2,33.6C33,33.5,19.9,33.4,6.8,33.4c-0.3,1.3-0.5,2.6-0.6,3.9h39.9V33.6z"/>
		<rect x="13.8" y="8.7" class="st3" width="3.4" height="2.8"/>
		<path class="st2" d="M49,37.6h21.4c-0.1-1.3-0.3-2.6-0.5-3.9H49v3.6h0V37.6z"/>
		<path class="st2" d="M49,40.4v1.8h2.7v26.9c7.8-3.5,13.7-9.8,16.7-17.8c1.3-3.5,2-7.2,2.1-10.9H49z M63,57.7h-8.5v-13H63V57.7z"/>
		<path class="st2" d="M38.1,42.2h2.7v29.6c0.9-0.1,1.7-0.1,2.5-0.3V42.2H46v-2h-7.9V42.2z"/>
		<path class="st2" d="M13.6,42.2h2.8v20.9c0.9,0.8,1.7,1.6,2.7,2.3v-5.6c0-0.2,0-1.8,1.3-3.1c0.9-0.9,2.2-1.4,3.8-1.4v0
			c0,0,0,0,0,0c0,0,0,0,0,0v0c1.6,0,2.9,0.5,3.8,1.4c1.3,1.3,1.3,2.9,1.3,3.1v10.9c1,0.3,2,0.5,3,0.7V42.2h2.7v-2.1H13.6V42.2z
			 M28.7,53.4h-7.9v-2.8h7.9V53.4z M20.8,42.7h7.9v2.8h-7.9V42.7z M19.2,46.6h10.9v2.8H19.2V46.6z"/>
		<path class="st2" d="M8.1,50v-7.8h2.7v-2.1H6.2C6.3,43.4,7,46.7,8.1,50z"/>
		<g>
			<rect x="57.4" y="47.5" class="st3" width="2.8" height="7.4"/>
			<path d="M54.6,44.7v13H63v-13H54.6z M60.2,54.9h-2.8v-7.4h2.8V54.9z"/>
		</g>
		<rect x="20.8" y="42.7" width="7.9" height="2.8"/>
		<rect x="19.2" y="46.6" width="10.9" height="2.8"/>
		<rect x="20.8" y="50.6" width="7.9" height="2.8"/>
		<g>
			<path class="st3" d="M8.9,27.4c-0.4,0.8-0.7,1.6-1,2.4c1.4-0.8,2.8-1.6,4.3-2.4C10.7,27.4,9.6,27.4,8.9,27.4z"/>
			<path class="st3" d="M46.2,33.6L46.2,33.6L46.2,33.6C33,33.5,19.9,33.4,6.8,33.4c-0.3,1.3-0.5,2.6-0.6,3.9h39.9V33.6z"/>
			<path class="st3" d="M11,56.2c0.8,1.4,1.7,2.7,2.7,3.9v-15H11V56.2z"/>
			<path class="st3" d="M8.1,50v-7.8h2.7v-2.1H6.2C6.3,43.4,7,46.7,8.1,50z"/>
			<path class="st3" d="M26.7,22.5c-4.8,2.7-9.7,5.4-14.5,8.1c9.9,0,19.8,0.1,29.7,0.1C36.8,28,31.8,25.2,26.7,22.5z"/>
			<rect x="13.8" y="8.7" class="st3" width="3.4" height="2.8"/>
			<rect x="20.2" y="5.9" class="st3" width="5.2" height="2.8"/>
			<path class="st3" d="M46.1,27.5c-1.1,0-2.6,0-4.2,0c1.4,0.7,2.8,1.5,4.2,2.2L46.1,27.5z"/>
			<path class="st3" d="M49,40.4v1.8h2.7v26.9c7.8-3.5,13.7-9.8,16.7-17.8c1.3-3.5,2-7.2,2.1-10.9H49z"/>
			<path class="st3" d="M24.3,58.1c-0.8,0-1.5,0.2-1.8,0.6C22,59.1,22,59.7,22,59.8v7.5c1.5,0.9,3,1.7,4.7,2.3v-9.9
				C26.6,59.3,26.4,58.1,24.3,58.1z"/>
			<path class="st3" d="M49,37.6h21.4c-0.1-1.3-0.3-2.6-0.5-3.9H49v3.6h0V37.6z"/>
			<path class="st3" d="M13.6,42.2h2.8v20.9c0.9,0.8,1.7,1.6,2.7,2.3v-5.6c0-0.2,0-1.8,1.3-3.1c0.9-0.9,2.2-1.4,3.8-1.4v0
				c0,0,0,0,0,0c0,0,0,0,0,0v0c1.6,0,2.9,0.5,3.8,1.4c1.3,1.3,1.3,2.9,1.3,3.1v10.9c1,0.3,2,0.5,3,0.7V42.2h2.7v-2.1H13.6V42.2z"/>
			<path class="st3" d="M35.3,71.8c0.9,0.1,1.8,0.2,2.7,0.2V45.1h-2.7V71.8z"/>
			<path class="st3" d="M38.1,42.2h2.7v29.6c0.9-0.1,1.7-0.1,2.5-0.3V42.2H46v-2h-7.9V42.2z"/>
			<g>
				<path class="st3" d="M26.7,22.5c-4.8,2.7-9.7,5.4-14.5,8.1c9.9,0,19.8,0.1,29.7,0.1C36.8,28,31.8,25.2,26.7,22.5z"/>
				<path class="st3" d="M8.1,50v-7.8h2.7v-2.1H6.2C6.3,43.4,7,46.7,8.1,50z"/>
				<path class="st3" d="M8.9,27.4c-0.4,0.8-0.7,1.6-1,2.4c1.4-0.8,2.8-1.6,4.3-2.4C10.7,27.4,9.6,27.4,8.9,27.4z"/>
				<path class="st3" d="M46.2,33.6L46.2,33.6L46.2,33.6C33,33.5,19.9,33.4,6.8,33.4c-0.3,1.3-0.5,2.6-0.6,3.9h39.9V33.6z"/>
				<path class="st3" d="M46.1,27.5c-1.1,0-2.6,0-4.2,0c1.4,0.7,2.8,1.5,4.2,2.2L46.1,27.5z"/>
				<rect x="20.2" y="5.9" class="st3" width="5.2" height="2.8"/>
				<rect x="13.8" y="8.7" class="st3" width="3.4" height="2.8"/>
				<path class="st3" d="M11,56.2c0.8,1.4,1.7,2.7,2.7,3.9v-15H11V56.2z"/>
				<path class="st3" d="M38.1,42.2h2.7v29.6c0.9-0.1,1.7-0.1,2.5-0.3V42.2H46v-2h-7.9V42.2z"/>
				<path class="st3" d="M49,40.4v1.8h2.7v26.9c7.8-3.5,13.7-9.8,16.7-17.8c1.3-3.5,2-7.2,2.1-10.9H49z"/>
				<path class="st3" d="M24.3,58.1c-0.8,0-1.5,0.2-1.8,0.6C22,59.1,22,59.7,22,59.8v7.5c1.5,0.9,3,1.7,4.7,2.3v-9.9
					C26.6,59.3,26.4,58.1,24.3,58.1z"/>
				<path class="st3" d="M49,37.6h21.4c-0.1-1.3-0.3-2.6-0.5-3.9H49v3.6h0V37.6z"/>
				<path class="st3" d="M46.2,71c0.9-0.2,1.8-0.5,2.7-0.8V45h-2.7V71z"/>
				<path class="st3" d="M13.6,42.2h2.8v20.9c0.9,0.8,1.7,1.6,2.7,2.3v-5.6c0-0.2,0-1.8,1.3-3.1c0.9-0.9,2.2-1.4,3.8-1.4v0
					c0,0,0,0,0,0c0,0,0,0,0,0v0c1.6,0,2.9,0.5,3.8,1.4c1.3,1.3,1.3,2.9,1.3,3.1v10.9c1,0.3,2,0.5,3,0.7V42.2h2.7v-2.1H13.6V42.2z"/>
				<path class="st3" d="M35.3,71.8c0.9,0.1,1.8,0.2,2.7,0.2V45.1h-2.7V71.8z"/>
				<path d="M70.4,25.6C65.5,14.8,55.6,7.2,43.8,5.4l-0.3,0l1.6,3.6l0.1,0c4.9,0.8,9.1,2.5,12.8,5.3c-0.5,0.2-1,0.5-1.5,0.9
					c-0.1,0.1-0.1,0.2-0.2,0.2c-0.8-0.8-1.9-1.3-3.3-1.4l0,0c-0.1,0-0.3,0-0.6,0c0,0,0,0,0,0v0c-0.8,0-2.1,0.2-3.2,1.2
					c-1,0.9-1.6,2.3-1.6,4h2.8c0-0.9,0.2-1.5,0.6-1.9c0.4-0.4,1-0.5,1.4-0.5c0.9,0,1.5,0.2,1.9,0.6c0.6,0.6,0.6,1.8,0.6,1.8h2.8
					c0-0.9,0.2-1.5,0.6-1.9c0.4-0.4,1-0.5,1.4-0.5c0.5,0,0.9,0.1,1.2,0.2c2.6,2.7,4.9,6,6.6,10c0.6,1.3,1.1,2.7,1.5,4H48.9v-4.6
					l0-1.6l-0.1,0v0c0,0-1,0-2.6,0l-0.1,0c-2.3,0-5.7,0-9.5,0c-2.8-1.5-5.7-3.1-8.5-4.6v-8.6h0V3H17.4v2.8H11v8.4h9.1v-2.8h5.1v8.7
					c-2.7,1.5-5.3,3-8,4.5c-2.6,0-5.1,0-6.8,0c0.3-0.6,0.7-1.1,1.1-1.7l0-0.1l-1.4-3.3l-0.1,0.2C2.8,29.8,1.5,43.1,6.6,54.4
					c0.3,0.6,0.5,1.1,0.8,1.7c0.1,0.2,0.2,0.4,0.4,0.7c0.2,0.3,0.3,0.6,0.5,0.9c0.1,0.2,0.3,0.4,0.4,0.7c0.2,0.3,0.4,0.6,0.6,0.9
					c0.2,0.2,0.3,0.5,0.5,0.7c0.2,0.3,0.4,0.5,0.6,0.8c0.2,0.3,0.4,0.5,0.6,0.8c0.2,0.2,0.3,0.4,0.5,0.6c0.3,0.3,0.5,0.6,0.8,0.9
					c0.1,0.2,0.3,0.3,0.4,0.5c0.3,0.3,0.6,0.6,0.8,0.9c0.1,0.1,0.3,0.3,0.4,0.4c0.3,0.3,0.6,0.6,0.9,0.8c0.1,0.1,0.3,0.3,0.4,0.4
					c0.3,0.3,0.6,0.5,0.9,0.8c0.1,0.1,0.3,0.3,0.4,0.4c0.3,0.3,0.7,0.5,1,0.8c0.1,0.1,0.3,0.2,0.4,0.3c0.4,0.3,0.7,0.5,1.1,0.7
					c0.1,0.1,0.3,0.2,0.4,0.3c0.4,0.2,0.8,0.5,1.1,0.7c0.1,0.1,0.3,0.2,0.4,0.2c0.4,0.2,0.8,0.4,1.2,0.6c0.1,0.1,0.3,0.2,0.4,0.2
					c0.4,0.2,0.8,0.4,1.2,0.6c0.2,0.1,0.3,0.1,0.4,0.2c0.4,0.2,0.8,0.3,1.2,0.5c0.2,0.1,0.3,0.1,0.5,0.2c0.4,0.2,0.8,0.3,1.2,0.4
					c0.2,0.1,0.3,0.1,0.5,0.2l0,0c0.3,0,0.5,0.1,0.8,0.1c0,0,0.1,0,0.1,0c0.2,0.1,0.4,0.1,0.6,0.2c0,0,0,0,0,0
					c0.5,0.2,0.9,0.5,1.2,0.8V74c0.4,0.1,0.8,0.2,1.2,0.2c0.1,0,0.3,0.1,0.4,0.1c0.5,0.1,1.1,0.2,1.7,0.3c0.2,0,0.3,0.1,0.5,0.1
					c0.5,0.1,1.1,0.1,1.6,0.2c0.2,0,0.4,0,0.5,0c0.7,0,1.4,0.1,2.2,0.1c0.7,0,1.4,0,2.1-0.1c0.2,0,0.5,0,0.7-0.1
					c0.4,0,0.9-0.1,1.3-0.1c0.3,0,0.6-0.1,0.9-0.1c0.4-0.1,0.8-0.1,1.2-0.2c0.3-0.1,0.6-0.1,0.9-0.2c0.3-0.1,0.6-0.1,0.9-0.2v0.1
					c0.2-0.1,0.3-0.2,0.5-0.3c0.2-0.1,0.4-0.2,0.7-0.3c0,0,0.1,0,0.1,0c0.2-0.1,0.4-0.1,0.7-0.1c0.2,0,0.4,0,0.6,0
					c0.1,0,0.2,0,0.2,0v-0.2c0.4-0.1,0.8-0.3,1.2-0.4c0.1,0,0.2-0.1,0.3-0.1c0.7-0.3,1.4-0.5,2.1-0.8C70.5,64,78.4,43.2,70.4,25.6z
					 M17.2,11.4h-3.4V8.7h3.4V11.4z M46.1,27.5l0,2.2c-1.4-0.7-2.8-1.5-4.2-2.2C43.6,27.5,45,27.5,46.1,27.5z M20.2,8.6V5.9h5.2v2.8
					H20.2z M26.7,22.5c5.1,2.7,10.1,5.5,15.2,8.2c-9.9,0-19.8-0.1-29.7-0.1C17.1,27.9,21.9,25.2,26.7,22.5z M8.9,27.4
					c0.7,0,1.8,0,3.3,0c-1.4,0.8-2.8,1.6-4.3,2.4C8.2,29,8.5,28.2,8.9,27.4z M10.8,42.2H8.1V50c-1.2-3.3-1.8-6.6-1.9-9.8h4.6V42.2z
					 M6.3,37.3c0.1-1.3,0.3-2.6,0.6-3.9c13.1,0,26.2,0.1,39.3,0.1v0h0v3.8H6.3z M13.6,60c-1-1.2-1.9-2.5-2.7-3.9V45.1h2.7V60z
					 M26.6,69.6C25,69,23.5,68.2,22,67.3v-7.5c0,0,0-0.6,0.5-1.1c0.4-0.4,1-0.6,1.8-0.6c2.1,0,2.3,1.2,2.3,1.7V69.6z M35.1,42.2
					h-2.7v29.1c-1-0.2-2-0.4-3-0.7V59.8c0-0.2,0-1.8-1.3-3.1c-0.9-0.9-2.2-1.4-3.8-1.4v0c0,0,0,0,0,0c0,0,0,0,0,0v0
					c-1.6,0-2.9,0.5-3.8,1.4c-1.3,1.3-1.3,2.9-1.3,3.1v5.6c-0.9-0.7-1.8-1.5-2.7-2.3V42.2h-2.8v-2.1h21.5V42.2z M38,71.9
					c-0.9,0-1.8-0.1-2.7-0.2V45.1H38V71.9z M46,42.2h-2.7v29.4c-0.8,0.1-1.7,0.2-2.5,0.3V42.2h-2.7v-2.1H46V42.2z M48.8,70.2
					c-0.9,0.3-1.8,0.6-2.7,0.8V45h2.7V70.2z M49,33.7h20.9c0.3,1.3,0.4,2.6,0.5,3.9H49v-0.2h0V33.7z M51.7,69.1V42.2H49v-1.8h21.5
					c-0.1,3.7-0.7,7.4-2.1,10.9C65.4,59.3,59.4,65.6,51.7,69.1z"/>
			</g>
		</g>
	</g>
</g>
</svg>
